#define titulek1_width 128
#define titulek1_height 32
static unsigned char titulek1_bits[] = {
   0x00, 0x00, 0x00, 0x00, 0x00, 0x00, 0x00, 0x00, 0x00, 0x00, 0x00, 0x00,
   0x00, 0x00, 0x00, 0x00, 0x00, 0x00, 0x00, 0x00, 0x00, 0x00, 0x00, 0x00,
   0x00, 0x00, 0x00, 0x00, 0x00, 0x00, 0x00, 0x00, 0x00, 0x04, 0x00, 0x00,
   0x00, 0x10, 0x00, 0x00, 0x00, 0x00, 0x00, 0x00, 0x00, 0x00, 0x00, 0x00,
   0x00, 0x04, 0x00, 0x00, 0x04, 0x10, 0x00, 0x00, 0x00, 0x00, 0x00, 0x00,
   0x00, 0x00, 0x00, 0x00, 0x00, 0x04, 0x00, 0x00, 0x04, 0x10, 0x00, 0x00,
   0x00, 0x00, 0x00, 0x00, 0x00, 0x00, 0x00, 0x00, 0xe0, 0x3c, 0x51, 0xe4,
   0x9e, 0x13, 0x00, 0x00, 0x00, 0x00, 0x00, 0x00, 0x00, 0x00, 0x00, 0x00,
   0x10, 0x45, 0x51, 0x04, 0x45, 0x14, 0x00, 0x00, 0x00, 0x00, 0x00, 0x00,
   0x00, 0x00, 0x00, 0x00, 0x10, 0x45, 0x8a, 0xe2, 0xc5, 0x17, 0x00, 0x00,
   0x00, 0x00, 0x00, 0x00, 0x00, 0x00, 0x00, 0x00, 0x10, 0x45, 0x8a, 0x13,
   0x45, 0x10, 0x00, 0x00, 0x00, 0x00, 0x00, 0x00, 0x00, 0x00, 0x00, 0x00,
   0xe0, 0x3c, 0x04, 0x61, 0x9d, 0x17, 0x00, 0x00, 0x00, 0x00, 0x00, 0x00,
   0x00, 0x00, 0x00, 0x00, 0x00, 0x00, 0x04, 0x00, 0x00, 0x00, 0x00, 0x00,
   0x00, 0x00, 0x00, 0x00, 0x00, 0x00, 0x00, 0x00, 0x00, 0x00, 0x03, 0x00,
   0x00, 0x00, 0x00, 0x00, 0x00, 0x00, 0x00, 0x00, 0x00, 0x00, 0x00, 0x00,
   0x00, 0x00, 0x00, 0x00, 0x00, 0x00, 0x00, 0x00, 0x00, 0x00, 0x00, 0x00,
   0x00, 0x00, 0x00, 0x00, 0x00, 0x00, 0x00, 0x00, 0x00, 0x00, 0x00, 0x00,
   0x00, 0x00, 0x00, 0x00, 0x00, 0x00, 0x00, 0x00, 0x00, 0x00, 0x00, 0x00,
   0x00, 0x00, 0x00, 0x00, 0x00, 0x00, 0x00, 0x00, 0x00, 0x00, 0x00, 0x00,
   0x00, 0x00, 0x00, 0x00, 0x00, 0x00, 0x00, 0x00, 0x00, 0x00, 0x00, 0x00,
   0x00, 0x00, 0x00, 0x00, 0x00, 0x00, 0x00, 0x00, 0x00, 0x00, 0x00, 0x00,
   0x00, 0x00, 0x00, 0x00, 0x00, 0x00, 0x00, 0x00, 0xfc, 0x01, 0x00, 0x30,
   0x00, 0x00, 0x00, 0x00, 0x03, 0x00, 0x00, 0x00, 0x18, 0x00, 0x00, 0x00,
   0xfc, 0x03, 0x00, 0x30, 0x00, 0x00, 0x00, 0x00, 0x03, 0x00, 0x00, 0x00,
   0x18, 0x00, 0x00, 0x00, 0x0c, 0x07, 0x00, 0x30, 0x00, 0x00, 0x00, 0x00,
   0x03, 0x00, 0x00, 0x00, 0x18, 0x00, 0x00, 0x00, 0x0c, 0x06, 0x00, 0x30,
   0x00, 0x00, 0x00, 0x00, 0x03, 0x00, 0x00, 0x00, 0x18, 0x00, 0x00, 0x00,
   0x0c, 0x06, 0x3c, 0x30, 0x07, 0x06, 0x83, 0x0f, 0x83, 0x0f, 0x03, 0x06,
   0x18, 0x00, 0x00, 0x00, 0x0c, 0x07, 0xff, 0xf0, 0x0f, 0x06, 0xe3, 0x1f,
   0xc3, 0x1f, 0x06, 0x03, 0x18, 0x00, 0x00, 0x00, 0xfc, 0x03, 0xc3, 0x70,
   0x1c, 0x06, 0xe3, 0x10, 0x43, 0x38, 0x06, 0x03, 0x18, 0x00, 0x00, 0x00,
   0xfc, 0x83, 0xc1, 0x31, 0x18, 0x06, 0x63, 0x00, 0x03, 0x30, 0x06, 0x03,
   0x18, 0x00, 0x00, 0x00, 0x0c, 0x86, 0x81, 0x31, 0x18, 0x06, 0xe3, 0x03,
   0x83, 0x3f, 0x8c, 0x01, 0x18, 0x00, 0x00, 0x00, 0x0c, 0x8c, 0x81, 0x31,
   0x18, 0x06, 0x83, 0x0f, 0xc3, 0x3f, 0x8c, 0x01, 0x18, 0x00, 0x00, 0x00,
   0x0c, 0x8c, 0x81, 0x31, 0x18, 0x06, 0x03, 0x1c, 0xe3, 0x30, 0xdc, 0x00,
   0x18, 0x00, 0x00, 0x00, 0x0c, 0x8c, 0xc1, 0x31, 0x18, 0x06, 0x03, 0x18,
   0x63, 0x30, 0xd8, 0x00, 0x18, 0x00, 0x00, 0x00, 0x0c, 0x0e, 0xc3, 0x30,
   0x18, 0x8e, 0x23, 0x1c, 0xe3, 0x38, 0xf8, 0x00, 0x18, 0x00, 0x00, 0x00,
   0xfc, 0x07, 0xff, 0x30, 0x18, 0xfc, 0xe3, 0x0f, 0xc3, 0x3f, 0x70, 0x00,
   0x18, 0x06, 0x00, 0x00, 0xfc, 0x03, 0x3c, 0x30, 0x18, 0x38, 0xc3, 0x07,
   0x83, 0x33, 0x70, 0x00, 0x18, 0x06, 0x00, 0x00 };
